<svg xmlns="http://www.w3.org/2000/svg" id="Layer_1" data-name="Layer 1" viewBox="0 0 128 128"><path d="M123.25 24.192q.001-.026-.005-.052c-.006-.026-.007-.063-.009-.094a1.7 1.7 0 0 0-.083-.408c-.006-.018 0-.037-.011-.055s-.01-.015-.013-.023a1.7 1.7 0 0 0-.227-.407q-.031-.04-.066-.08a1.8 1.8 0 0 0-.31-.294q-.017-.015-.034-.028a1.7 1.7 0 0 0-.414-.2q-.052-.017-.1-.032a1.7 1.7 0 0 0-.474-.073H6.5a1.7 1.7 0 0 0-.474.073q-.052.015-.1.032a1.7 1.7 0 0 0-.414.2q-.017.013-.034.028a1.8 1.8 0 0 0-.31.294q-.034.04-.066.08a1.7 1.7 0 0 0-.227.407c0 .008-.01.015-.013.023s-.005.037-.011.055a1.7 1.7 0 0 0-.083.408c0 .032-.009.063-.009.094s-.005.034-.005.052v79.615c0 .023.006.045.007.068a2 2 0 0 0 .019.188q.01.075.027.152a2 2 0 0 0 .056.179q.024.071.054.139a2 2 0 0 0 .093.172q.035.061.075.119a2 2 0 0 0 .125.152q.05.054.1.106c.021.019.037.042.059.061s.036.017.052.03a1.7 1.7 0 0 0 .452.263c.035.014.071.022.107.033a1.7 1.7 0 0 0 .488.085c.012 0 .023.006.035.006h114.998c.012 0 .023-.006.034-.006a1.7 1.7 0 0 0 .489-.085c.035-.011.07-.019.1-.033a1.7 1.7 0 0 0 .453-.263c.016-.013.036-.017.052-.03s.038-.042.059-.061q.054-.05.1-.106a2 2 0 0 0 .125-.152q.04-.057.075-.119a2 2 0 0 0 .093-.172q.03-.068.054-.139a2 2 0 0 0 .056-.179q.017-.074.027-.152a2 2 0 0 0 .019-.188c0-.023.007-.045.007-.068ZM45.8 60.316l17.058 14.677a1.75 1.75 0 0 0 2.283 0L82.2 60.316l35.512 41.741H10.289ZM8.25 99.052V28.007l34.9 30.026Zm76.6-41.019 34.9-30.026v71.045Zm31.931-32.091L81.276 56.493q-.01.006-.02.014c-.01.008-.012.014-.019.02L64 71.358 46.763 56.527l-.019-.02-.02-.014-35.507-30.551Z"/></svg>